<svg xmlns="http://www.w3.org/2000/svg" viewBox="0 0 48.3 148.44"><defs><style>.cls-1{}</style></defs><title>alcohol-bottle</title><g id="Layer_2" data-name="Layer 2"><g id="Layer_1-2" data-name="Layer 1"><path class="cls-1" d="M39.75,148.44H8.55A8.52,8.52,0,0,1,0,139.92v-66c-.16-1.41-.18-6.62,7-12.49,6.57-5.35,5.11-11.15,5.09-11.21-.09-.31-.2-.62-.33-1-1.32-3.59-3.32-9,3.29-31.9a6,6,0,0,1,5.75-4.32h6.6a6,6,0,0,1,5.75,4.32c6.6,22.88,4.61,28.31,3.28,31.9-.12.34-.24.65-.33,1,0,.06-1.48,5.86,5.09,11.21,7.19,5.87,7.18,11.08,7,12.49v66A8.52,8.52,0,0,1,39.75,148.44ZM20.85,18.05a1,1,0,0,0-1,.71c-6.15,21.31-4.42,26-3.4,28.78.17.45.32.87.45,1.29s2.47,9-6.74,16.49c-5.56,4.54-5.21,8-5.2,8l0,.24v66.32a3.52,3.52,0,0,0,3.51,3.52h31.2a3.52,3.52,0,0,0,3.51-3.52V73.52l0-.24h0s.3-3.46-5.22-8c-9.21-7.52-6.83-16.13-6.73-16.49s.27-.84.44-1.29c1-2.79,2.75-7.48-3.39-28.78a1,1,0,0,0-.95-.71Z"/><path class="cls-1" d="M45.8,85.42H33.59L33,83.77a9.26,9.26,0,0,0-8.84-5.86,9.28,9.28,0,0,0-8.85,5.86l-.59,1.65H2.5v-5h8.83a14.43,14.43,0,0,1,12.82-7.51A14.4,14.4,0,0,1,37,80.42H45.8Z"/><path class="cls-1" d="M24.15,129.78a14.43,14.43,0,0,1-12.82-7.51H2.5v-5H14.71l.59,1.65a9.28,9.28,0,0,0,8.85,5.86A9.26,9.26,0,0,0,33,118.92l.6-1.65H45.8v5H37A14.4,14.4,0,0,1,24.15,129.78Z"/><path class="cls-1" d="M20.67,30.45h-1.9c-4.12,0-4.13,0-4.88-1l1.95-1.56,2-1.51-2,1.51L16,25.43c.79,0,11.48,0,18.47,0l0,5-9.31,0Z"/><path class="cls-1" d="M30.15,11h0l-13.26-.17-.44-.21a4.07,4.07,0,0,1-2-5.19l1.13-2.84A4,4,0,0,1,19.28,0H29a4,4,0,0,1,3.77,2.55l1.14,2.84A4.06,4.06,0,0,1,30.15,11ZM18.85,6.31l10.65.15-.78-2H19.58Z"/><path class="cls-1" d="M17.55,17.16C16.06,15.72,13.9,12,16.42,8.28l3.73,2.53c-1,1.46.28,2.87.55,3.14Z"/><path class="cls-1" d="M30.75,17.16l-3.13-3.23,1.56,1.62L27.6,14c.26-.27,1.54-1.68.55-3.14l3.73-2.53C34.39,12,32.24,15.72,30.75,17.16Z"/></g></g></svg>