<svg xmlns="http://www.w3.org/2000/svg" viewBox="0 0 98.93 103.5"><defs><style>.cls-1{}</style></defs><title>announce</title><g id="Layer_2" data-name="Layer 2"><g id="Layer_1-2" data-name="Layer 1"><path class="cls-1" d="M93.34,79.09a5.64,5.64,0,0,1-2.77-.74L58.26,59.91H14.5A14.71,14.71,0,0,1,0,45V34.15A14.71,14.71,0,0,1,14.5,19.26H58.26L90.56.75A5.58,5.58,0,0,1,98.93,5.6V73.49a5.6,5.6,0,0,1-5.59,5.6ZM14.5,24.26A9.71,9.71,0,0,0,5,34.15V45a9.71,9.71,0,0,0,9.5,9.89H59.59L93.05,74a.58.58,0,0,0,.59,0,.56.56,0,0,0,.29-.51V5.6a.57.57,0,0,0-.29-.51.56.56,0,0,0-.59,0L59.59,24.26Z"/><path class="cls-1" d="M34.22,103.5h-.67a8.83,8.83,0,0,1-8.82-8.82V58.53a2.5,2.5,0,1,1,5,0V94.68a3.83,3.83,0,0,0,3.82,3.82h.67A3.83,3.83,0,0,0,38,94.68V58.53a2.5,2.5,0,0,1,5,0V94.68A8.83,8.83,0,0,1,34.22,103.5Z"/></g></g></svg>