<svg xmlns="http://www.w3.org/2000/svg" viewBox="0 0 95.56 111.67"><defs><style>.cls-1{}</style></defs><title>annual-report</title><g id="Layer_2" data-name="Layer 2"><g id="Layer_1-2" data-name="Layer 1"><path class="cls-1" d="M89,111.67H6.54A6.56,6.56,0,0,1,0,105.13V6.54A6.56,6.56,0,0,1,6.54,0H62.9L95.56,35.06v70.07A6.55,6.55,0,0,1,89,111.67ZM6.54,5A1.54,1.54,0,0,0,5,6.54v98.59a1.54,1.54,0,0,0,1.54,1.54H89a1.54,1.54,0,0,0,1.54-1.54V37L60.72,5Z"/><path class="cls-1" d="M83.61,43.55h-16c-10.32-1.06-12.79-9.63-12.65-14V12.64a2.5,2.5,0,0,1,5,0v17a8.57,8.57,0,0,0,8,8.95H83.61a2.5,2.5,0,0,1,0,5Z"/><path class="cls-1" d="M70,94.2H25.57a2.5,2.5,0,0,1,0-5H70a2.5,2.5,0,0,1,0,5Z"/><path class="cls-1" d="M27.06,84a2.53,2.53,0,0,1-1.77-.73,2.5,2.5,0,0,1,0-3.54L41.88,63.18l8.41,8.41L64.83,57a2.5,2.5,0,0,1,3.54,3.54L50.29,78.66l-8.41-8.41L28.82,83.31A2.49,2.49,0,0,1,27.06,84Z"/><path class="cls-1" d="M68.51,71.07a2.5,2.5,0,0,1-2.5-2.5V59.4H56.84a2.5,2.5,0,0,1,0-5H71V68.57A2.5,2.5,0,0,1,68.51,71.07Z"/></g></g></svg>