<svg xmlns="http://www.w3.org/2000/svg" viewBox="0 0 115.17 142.07"><defs><style>.cls-1{}</style></defs><title>anti-bottle</title><g id="Layer_2" data-name="Layer 2"><g id="Layer_1-2" data-name="Layer 1"><path class="cls-1" d="M104.44,100.1a2.43,2.43,0,0,1-1.16-.29L9.08,50.71a2.52,2.52,0,0,1,2.33-4.47l94.2,49.1a2.52,2.52,0,0,1-1.17,4.76Z"/><path class="cls-1" d="M35.35,125.93a2.46,2.46,0,0,1-1-.22A57.58,57.58,0,0,1,48,16.25a2.52,2.52,0,0,1,.83,5A52.54,52.54,0,0,0,36.38,121.1a2.52,2.52,0,0,1-1,4.83Z"/><path class="cls-1" d="M78.57,126.46a2.51,2.51,0,0,1-1-4.84A52.56,52.56,0,0,0,65.11,21a2.52,2.52,0,1,1,.71-5A57.58,57.58,0,0,1,79.53,126.27,2.49,2.49,0,0,1,78.57,126.46Z"/><path class="cls-1" d="M72.56,142.07H41.37a8.52,8.52,0,0,1-8.51-8.51v-66c-.16-1.41-.18-6.62,7-12.48C46.44,49.72,45,43.92,45,43.86c-.09-.31-.21-.62-.33-1-1.14-3.09-2.85-7.76,1.28-24.47v-.21l.08-.3c.13-.51.28-1.17.44-1.86.8-3.47,1.17-4.83,1.67-5.64A4.39,4.39,0,0,1,47,9a4.28,4.28,0,0,1-.09-3.42l1.14-2.84a4.27,4.27,0,0,1,4-2.71h9.78a4.28,4.28,0,0,1,4,2.71L67,5.55a4.27,4.27,0,0,1-1.2,4.87c.51.81.88,2.18,1.68,5.64.16.69.31,1.35.44,1.86,4.3,17.13,2.56,21.86,1.41,25-.12.34-.24.65-.33,1,0,.06-1.48,5.86,5.09,11.22,7.19,5.86,7.17,11.07,7,12.48v66A8.52,8.52,0,0,1,72.56,142.07ZM50.91,18.83V19l-.07.3C47,34.8,48.45,38.79,49.32,41.18c.17.45.32.87.44,1.28S52.25,51.43,43,59c-5.56,4.54-5.21,8-5.21,8l0,.24v66.32a3.51,3.51,0,0,0,3.51,3.51H72.56a3.51,3.51,0,0,0,3.51-3.51V67.15l.05-.24h0s.3-3.45-5.22-8c-9.22-7.52-6.84-16.13-6.73-16.49s.27-.83.44-1.28c.88-2.4,2.35-6.41-1.57-22h0c-.14-.54-.29-1.22-.46-1.95-.28-1.21-.79-3.39-1-4.1a5.53,5.53,0,0,1-1.27-3,3.52,3.52,0,0,1,1.82-3.31L61.36,5H52.52L51.8,6.79a3.49,3.49,0,0,1,1.82,3.3,5.52,5.52,0,0,1-1.27,3c-.27.71-.77,2.89-1.05,4.1C51.16,17.79,51,18.35,50.91,18.83ZM61.48,13Z"/></g></g></svg>