<svg xmlns="http://www.w3.org/2000/svg" viewBox="0 0 116.05 49.3"><defs><style>.cls-1{}</style></defs><title>binoculars</title><g id="Layer_2" data-name="Layer 2"><g id="Layer_1-2" data-name="Layer 1"><path class="cls-1" d="M24.65,49.3A24.65,24.65,0,1,1,49.3,24.65,24.68,24.68,0,0,1,24.65,49.3Zm0-44.16A19.51,19.51,0,1,0,44.16,24.65,19.53,19.53,0,0,0,24.65,5.14Z"/><path class="cls-1" d="M11.53,27.36h0A2.58,2.58,0,0,1,9,24.74C9.2,12.51,19.4,8.63,24.76,8.29a2.57,2.57,0,0,1,.34,5.13c-1.12.08-10.8,1.09-11,11.42A2.57,2.57,0,0,1,11.53,27.36Z"/><path class="cls-1" d="M91.4,49.3a24.65,24.65,0,1,1,24.65-24.65A24.68,24.68,0,0,1,91.4,49.3Zm0-44.16a19.51,19.51,0,1,0,19.51,19.51A19.53,19.53,0,0,0,91.4,5.14Z"/><path class="cls-1" d="M77.9,27.36h-.05a2.57,2.57,0,0,1-2.52-2.62c.23-12.23,10.44-16.11,15.8-16.45a2.57,2.57,0,1,1,.33,5.13c-1.11.08-10.79,1.09-11,11.42A2.58,2.58,0,0,1,77.9,27.36Z"/><path class="cls-1" d="M43.4,15.16a2.57,2.57,0,0,1-1.53-4.63c5.91-4.4,20.29-10,32.43.09a2.57,2.57,0,1,1-3.3,4c-12.09-10.09-25.92,0-26.06.08A2.52,2.52,0,0,1,43.4,15.16Z"/><path class="cls-1" d="M68.35,29a2.57,2.57,0,0,1-2-.94c-2.36-2.88-4.91-4.37-7.59-4.43h-.16c-4.83,0-8.94,4.46-9,4.51a2.57,2.57,0,0,1-3.84-3.42c.23-.26,5.75-6.41,13.09-6.23,4.25.09,8.11,2.21,11.46,6.31a2.57,2.57,0,0,1-2,4.2Z"/><circle class="cls-1" cx="58.03" cy="14.83" r="3.21"/><path class="cls-1" d="M58,18.54a3.71,3.71,0,1,1,3.71-3.71A3.72,3.72,0,0,1,58,18.54Zm0-6.42a2.71,2.71,0,1,0,2.71,2.71A2.71,2.71,0,0,0,58,12.12Z"/><path class="cls-1" d="M47.41,34.51a4.56,4.56,0,0,1-1.62-.27,2.57,2.57,0,0,1,1.64-4.87c.25,0,2.2-.3,4.76-5.31a6.59,6.59,0,0,1,11.68,0c2.56,5,4.5,5.3,4.76,5.31a2.57,2.57,0,0,1,1.63,4.87c-.59.23-5.94,2-11-7.84a1.45,1.45,0,0,0-2.53,0C53.21,33.35,49.5,34.51,47.41,34.51Zm21-5.06Zm-20.73,0h0Zm20.73,0Zm-20.73,0Zm20.74,0Zm-20.74,0Z"/></g></g></svg>