<svg xmlns="http://www.w3.org/2000/svg" viewBox="0 0 109.71 71.04"><defs><style>.cls-1{}</style></defs><title>brain</title><g id="Layer_2" data-name="Layer 2"><g id="Layer_1-2" data-name="Layer 1"><path class="cls-1" d="M43.37,71C29.69,71,23.77,62.33,22,56.1c-8.69.77-15.61-1.51-19.2-6.39C-1.39,44-.89,35.52,4.33,24.59h0c4.4-9.22,15.07-16.67,30.06-21C54.19-2.08,76.88-.94,88.33,6.32c19.2,12.18,24,36.87,20.14,50-3.68,12.42-12,10.31-19.94,8.26-.76-.2-1.54-.4-2.34-.59-4-1-10.13.67-17.21,2.59-7.53,2-16.06,4.35-25.24,4.46ZM26.2,50.52l.3,2.54c.07.52,1.86,13,16.87,13h.31c8.55-.1,16.75-2.33,24-4.29,7.75-2.09,14.44-3.91,19.71-2.62l2.39.6c8.81,2.26,11.7,2.62,13.9-4.83,2.87-9.66.52-32.6-18-44.35C75.47,4.08,54,3.17,35.77,8.42,22.18,12.32,12.62,18.83,8.84,26.74h0c-4.3,9-5,15.92-2,20,2.78,3.77,8.9,5.28,16.8,4.13ZM6.58,25.67h0Z"/><path class="cls-1" d="M24,55.85a2.49,2.49,0,0,1-1.93-4.09A52,52,0,0,1,57.94,35.14c6.77-.34,11.34-2.13,13.59-5.32,2.58-3.63,1.28-8.16,1.26-8.2a2.51,2.51,0,0,1,1.67-3.11,2.49,2.49,0,0,1,3.11,1.64c.09.28,2.05,6.83-1.91,12.5-3.17,4.54-9,7.06-17.46,7.48A47.87,47.87,0,0,0,25.94,55,2.48,2.48,0,0,1,24,55.85Z"/><path class="cls-1" d="M55.93,53.53a2.5,2.5,0,0,1-.64-4.91c1.51-.41,37.35-9.8,52.86-3.23a2.5,2.5,0,0,1-2,4.61c-5.66-2.41-16-2.59-29.86-.53a198.89,198.89,0,0,0-19.76,4A2.39,2.39,0,0,1,55.93,53.53Z"/><path class="cls-1" d="M59.93,28.23a2.49,2.49,0,0,1-2.33-1.6c-2.75-7.14-2.82-13.2-.2-18C60.94,2.12,68.05.56,68.35.5a2.5,2.5,0,0,1,1,4.89c-.1,0-5.23,1.22-7.62,5.66-1.86,3.46-1.7,8.1.49,13.78a2.49,2.49,0,0,1-1.43,3.23A2.39,2.39,0,0,1,59.93,28.23Z"/><path class="cls-1" d="M89.63,36.33A23.87,23.87,0,0,1,86,36a2.5,2.5,0,1,1,.75-4.94c10.73,1.63,13-5.76,13.14-6.08a2.5,2.5,0,0,1,4.8,1.42C103.58,30.11,99.11,36.33,89.63,36.33Z"/><path class="cls-1" d="M35.83,34.74a1.46,1.46,0,0,1-.29,0A2.5,2.5,0,0,1,33.34,32c.91-7.86,3.86-13.6,8.78-17,7.33-5.13,16.22-3.1,16.6-3a2.5,2.5,0,0,1-1.15,4.87h0c-.07,0-7.15-1.59-12.62,2.26-3.67,2.6-5.91,7.14-6.64,13.5A2.5,2.5,0,0,1,35.83,34.74Z"/><path class="cls-1" d="M35.89,23.65c-4.65,0-8.38-1.2-11.12-3.61a13.35,13.35,0,0,1-4.36-9.33,2.5,2.5,0,0,1,5,0,8.19,8.19,0,0,0,2.71,5.64c2.37,2.05,6.15,2.75,11.23,2.08a2.5,2.5,0,0,1,.65,5A31.43,31.43,0,0,1,35.89,23.65ZM25.41,10.71h0Z"/><path class="cls-1" d="M56.91,69.49A2.49,2.49,0,0,1,54.64,68h0c0-.11-5.13-10.9-15.28-12.19a2.5,2.5,0,1,1,.63-5C53,52.52,58.94,65.41,59.19,66a2.5,2.5,0,0,1-2.28,3.53Z"/></g></g></svg>