<svg xmlns="http://www.w3.org/2000/svg" viewBox="0 0 97.71 102.69"><defs><style>.cls-1{}</style></defs><title>calendar</title><g id="Layer_2" data-name="Layer 2"><g id="Layer_1-2" data-name="Layer 1"><path class="cls-1" d="M73.15,21.39a2.49,2.49,0,0,1-2.5-2.5V2.5a2.5,2.5,0,0,1,5,0V18.89A2.49,2.49,0,0,1,73.15,21.39Z"/><path class="cls-1" d="M24.56,21.39a2.49,2.49,0,0,1-2.5-2.5V2.5a2.5,2.5,0,0,1,5,0V18.89A2.49,2.49,0,0,1,24.56,21.39Z"/><path class="cls-1" d="M95.21,36.33H2.5a2.5,2.5,0,0,1,0-5H95.21a2.5,2.5,0,0,1,0,5Z"/><path class="cls-1" d="M91.07,102.69H6.64A6.38,6.38,0,0,1,0,96.61V15.74A6.39,6.39,0,0,1,6.64,9.66H91.07a6.39,6.39,0,0,1,6.64,6.08V96.61A6.38,6.38,0,0,1,91.07,102.69Zm-84.43-88c-.94,0-1.64.57-1.64,1.08V96.61c0,.51.7,1.08,1.64,1.08H91.07c.94,0,1.64-.57,1.64-1.08V15.74c0-.51-.7-1.08-1.64-1.08Z"/><path class="cls-1" d="M52.46,63.26H44.71A6.69,6.69,0,0,1,38,56.58V48.83a6.68,6.68,0,0,1,6.68-6.67h7.75a6.67,6.67,0,0,1,6.67,6.67v7.75A6.68,6.68,0,0,1,52.46,63.26Zm-7.75-16.1A1.68,1.68,0,0,0,43,48.83v7.75a1.68,1.68,0,0,0,1.68,1.68h7.75a1.68,1.68,0,0,0,1.67-1.68V48.83a1.67,1.67,0,0,0-1.67-1.67Z"/><path class="cls-1" d="M79.54,63.26H71.79a6.69,6.69,0,0,1-6.68-6.68V48.83a6.68,6.68,0,0,1,6.68-6.67h7.75a6.68,6.68,0,0,1,6.68,6.67v7.75A6.69,6.69,0,0,1,79.54,63.26Zm-7.75-16.1a1.68,1.68,0,0,0-1.68,1.67v7.75a1.68,1.68,0,0,0,1.68,1.68h7.75a1.68,1.68,0,0,0,1.68-1.68V48.83a1.68,1.68,0,0,0-1.68-1.67Z"/><path class="cls-1" d="M52.46,90.49H44.71A6.69,6.69,0,0,1,38,83.81V76.06a6.69,6.69,0,0,1,6.68-6.68h7.75a6.68,6.68,0,0,1,6.67,6.68v7.75A6.68,6.68,0,0,1,52.46,90.49ZM44.71,74.38A1.69,1.69,0,0,0,43,76.06v7.75a1.68,1.68,0,0,0,1.68,1.68h7.75a1.68,1.68,0,0,0,1.67-1.68V76.06a1.68,1.68,0,0,0-1.67-1.68Z"/><path class="cls-1" d="M25.38,90.49H17.63A6.69,6.69,0,0,1,11,83.81V76.06a6.69,6.69,0,0,1,6.68-6.68h7.75a6.68,6.68,0,0,1,6.67,6.68v7.75A6.68,6.68,0,0,1,25.38,90.49ZM17.63,74.38A1.68,1.68,0,0,0,16,76.06v7.75a1.68,1.68,0,0,0,1.68,1.68h7.75a1.68,1.68,0,0,0,1.67-1.68V76.06a1.68,1.68,0,0,0-1.67-1.68Z"/><path class="cls-1" d="M79.54,90.49H71.79a6.69,6.69,0,0,1-6.68-6.68V76.06a6.69,6.69,0,0,1,6.68-6.68h7.75a6.69,6.69,0,0,1,6.68,6.68v7.75A6.69,6.69,0,0,1,79.54,90.49ZM71.79,74.38a1.69,1.69,0,0,0-1.68,1.68v7.75a1.68,1.68,0,0,0,1.68,1.68h7.75a1.68,1.68,0,0,0,1.68-1.68V76.06a1.69,1.69,0,0,0-1.68-1.68Z"/></g></g></svg>