<svg xmlns="http://www.w3.org/2000/svg" viewBox="0 0 95.56 124.29"><defs><style>.cls-1{}</style></defs><title>check-list</title><g id="Layer_2" data-name="Layer 2"><g id="Layer_1-2" data-name="Layer 1"><path class="cls-1" d="M89,124.29H6.54A6.56,6.56,0,0,1,0,117.75V19.16a6.55,6.55,0,0,1,6.54-6.54H27.63a2.5,2.5,0,0,1,0,5H6.54A1.54,1.54,0,0,0,5,19.16v98.59a1.54,1.54,0,0,0,1.54,1.54H89a1.54,1.54,0,0,0,1.54-1.54V19.16A1.54,1.54,0,0,0,89,17.62H67.91a2.5,2.5,0,1,1,0-5H89a6.54,6.54,0,0,1,6.54,6.54v98.59A6.55,6.55,0,0,1,89,124.29Z"/><path class="cls-1" d="M52.94,23.77c-2.86,0-5.7,0-8.5-.07-3.07,0-6.09-.12-9.19-.05a21.32,21.32,0,0,1-2.23,0,8.83,8.83,0,0,1-6.37-3.71A8.24,8.24,0,0,1,25.39,13c1.66-6.53,8.37-6.48,10.9-6.49h0a.62.62,0,0,0,.43-.18.26.26,0,0,0,.1-.2V6.09A6.14,6.14,0,0,1,43,0H52.6a6.14,6.14,0,0,1,6.13,6.13v.14a.22.22,0,0,0,.07.16.66.66,0,0,0,.43.18h2.69a8.56,8.56,0,0,1,7.73,12.05c-1.41,3.07-4.3,4.84-8.14,5C58.67,23.74,55.8,23.77,52.94,23.77ZM36,18.63c2.83,0,5.66,0,8.5.07,5.53.07,11.26.14,16.83-.06,2.88-.11,3.55-1.58,3.78-2.07a3.57,3.57,0,0,0-3.19-5H59.23a5.65,5.65,0,0,1-4-1.67,5.18,5.18,0,0,1-1.51-3.71v-.1A1.14,1.14,0,0,0,52.6,5H43a1.14,1.14,0,0,0-1.13,1.11,5.27,5.27,0,0,1-1.54,3.77,5.65,5.65,0,0,1-4,1.66c-4.51,0-5.58.94-6,2.72a3.3,3.3,0,0,0,.5,2.76,3.83,3.83,0,0,0,2.77,1.6,14.31,14.31,0,0,0,1.63,0Z"/><path class="cls-1" d="M77.7,73.3H38.88a2.34,2.34,0,1,1,0-4.67H77.7a2.34,2.34,0,0,1,0,4.67Z"/><path class="cls-1" d="M27.22,78.25a2,2,0,0,1-1.4-.57L15,67.11a2,2,0,0,1,2.8-2.86L28.62,74.82a2,2,0,0,1-1.4,3.43Z"/><path class="cls-1" d="M16.54,78.36A2,2,0,0,1,15.11,75L25.68,64.17A2,2,0,0,1,28.54,67L18,77.76A2,2,0,0,1,16.54,78.36Z"/><path class="cls-1" d="M77.7,49.8H38.88a2.34,2.34,0,1,1,0-4.67H77.7a2.34,2.34,0,0,1,0,4.67Z"/><path class="cls-1" d="M19.48,54.68l-6.05-5.56a2,2,0,1,1,2.71-2.95l3.19,2.95,8.12-8.27a2,2,0,1,1,2.85,2.8Z"/><path class="cls-1" d="M77.7,96.8H38.88a2.34,2.34,0,1,1,0-4.68H77.7a2.34,2.34,0,0,1,0,4.68Z"/><path class="cls-1" d="M19.48,101.68l-6.05-5.57a2,2,0,1,1,2.71-2.94l3.19,2.94,8.12-8.27a2,2,0,0,1,2.85,2.81Z"/></g></g></svg>