<svg xmlns="http://www.w3.org/2000/svg" viewBox="0 0 62.77 62.77"><defs><style>.cls-1{}</style></defs><title>close</title><g id="Layer_2" data-name="Layer 2"><g id="Layer_1-2" data-name="Layer 1"><line class="cls-1" x1="60.27" y1="2.5" x2="2.5" y2="60.27"/><path class="cls-1" d="M2.5,62.77A2.5,2.5,0,0,1,.73,58.51L58.51.73A2.5,2.5,0,0,1,62,4.27L4.27,62A2.49,2.49,0,0,1,2.5,62.77Z"/><line class="cls-1" x1="2.5" y1="2.5" x2="60.27" y2="60.27"/><path class="cls-1" d="M60.27,62.77A2.45,2.45,0,0,1,58.51,62L.73,4.27A2.5,2.5,0,0,1,4.27.73L62,58.51a2.5,2.5,0,0,1-1.77,4.26Z"/></g></g></svg>