<svg xmlns="http://www.w3.org/2000/svg" viewBox="0 0 98.31 98.31"><defs><style>.cls-1{}</style></defs><title>exclamaition-point</title><g id="Layer_2" data-name="Layer 2"><g id="Layer_1-2" data-name="Layer 1"><path class="cls-1" d="M49.16,98.31A49.16,49.16,0,1,1,98.31,49.16,49.21,49.21,0,0,1,49.16,98.31ZM49.16,5A44.16,44.16,0,1,0,93.31,49.16,44.21,44.21,0,0,0,49.16,5Z"/><circle class="cls-1" cx="49.16" cy="69.76" r="6.19"/><path class="cls-1" d="M49.16,76.46a6.7,6.7,0,1,1,6.69-6.7A6.71,6.71,0,0,1,49.16,76.46Zm0-12.39a5.7,5.7,0,1,0,5.69,5.69A5.7,5.7,0,0,0,49.16,64.07Z"/><path class="cls-1" d="M50.07,54.8l4.64-30.68a3.69,3.69,0,0,0-3.65-4.25h-3.8a3.7,3.7,0,0,0-3.66,4.25L48.25,54.8A.92.92,0,0,0,50.07,54.8Z"/><path class="cls-1" d="M49.16,56.09a1.4,1.4,0,0,1-1.41-1.21L43.11,24.19a4.2,4.2,0,0,1,4.15-4.82h3.8a4.18,4.18,0,0,1,4.14,4.82L50.56,54.88A1.39,1.39,0,0,1,49.16,56.09Zm-1.9-35.72A3.2,3.2,0,0,0,44.1,24l4.64,30.69a.42.42,0,0,0,.83,0L54.21,24a3.18,3.18,0,0,0-.73-2.56,3.21,3.21,0,0,0-2.42-1.11Z"/></g></g></svg>