<svg xmlns="http://www.w3.org/2000/svg" viewBox="0 0 98.31 102.48"><defs><style>.cls-1{}</style></defs><title>face</title><g id="Layer_2" data-name="Layer 2"><g id="Layer_1-2" data-name="Layer 1"><path class="cls-1" d="M65.18,72.33h-32a2.12,2.12,0,0,0-.91,4L35.67,78a31.66,31.66,0,0,0,27,0l3.44-1.62A2.12,2.12,0,0,0,65.18,72.33Z"/><path class="cls-1" d="M49.16,102.48A49.16,49.16,0,1,1,98.31,53.32,49.21,49.21,0,0,1,49.16,102.48Zm0-93.31A44.16,44.16,0,1,0,93.31,53.32,44.21,44.21,0,0,0,49.16,9.17Z"/><circle class="cls-1" cx="67.11" cy="56.64" r="4.15"/><circle class="cls-1" cx="30.13" cy="56.64" r="4.15"/><path class="cls-1" d="M31,46.11c-14.18,0-26.71-6.09-26.93-6.2a2.5,2.5,0,0,1,2.22-4.48A64.55,64.55,0,0,0,27.25,41C41.89,42.2,52.56,36.73,59,24.76a2.5,2.5,0,0,1,4.37-.06,37.61,37.61,0,0,0,8.42,9.5c6.68,5.2,13.63,6,20.67,2.53a2.5,2.5,0,1,1,2.24,4.47c-14.82,7.41-27.22-2.29-33.39-10.57C53.28,42.66,41.68,46.11,31,46.11Z"/><path class="cls-1" d="M72.17,15.24a2.74,2.74,0,0,1-.56-.06,2.48,2.48,0,0,1-1.88-1.93c0-.05-1.27-5.88-4.24-9A2.5,2.5,0,1,1,69.12.78a21.85,21.85,0,0,1,4.15,7A24.32,24.32,0,0,1,82,2a2.5,2.5,0,0,1,1.58,4.74c-4.77,1.59-9.35,7.48-9.39,7.54A2.52,2.52,0,0,1,72.17,15.24Z"/></g></g></svg>