<svg xmlns="http://www.w3.org/2000/svg" viewBox="0 0 112.41 98.25"><defs><style>.cls-1{}</style></defs><title>file-folder</title><g id="Layer_2" data-name="Layer 2"><g id="Layer_1-2" data-name="Layer 1"><path class="cls-1" d="M105.12,98.25H7.29c-4,0-7.29-3-7.29-6.65V27c0-3.66,3.27-6.65,7.29-6.65h97.83c4,0,7.29,3,7.29,6.65V91.6C112.41,95.26,109.14,98.25,105.12,98.25ZM7.29,25.39C6.05,25.39,5,26.15,5,27V91.6c0,.89,1,1.65,2.29,1.65h97.83c1.24,0,2.29-.76,2.29-1.65V27c0-.89-1-1.65-2.29-1.65Z"/><path class="cls-1" d="M12.81,24.23a2.5,2.5,0,0,1-2.5-2.5V6.65C10.31,3,13.58,0,17.6,0H39.78L49.92,7.27h45.3c4,0,7.29,3,7.29,6.65v6.2a2.5,2.5,0,1,1-5,0v-6.2c0-.89-1.05-1.65-2.29-1.65H48.31L38.18,5H17.6c-1.24,0-2.29.76-2.29,1.65V21.73A2.5,2.5,0,0,1,12.81,24.23Z"/><path class="cls-1" d="M47.39,40.12H15.23a2.5,2.5,0,1,1,0-5H47.39a2.5,2.5,0,0,1,0,5Z"/><path class="cls-1" d="M36.68,52H15.23a2.5,2.5,0,1,1,0-5H36.68a2.5,2.5,0,0,1,0,5Z"/></g></g></svg>