<svg xmlns="http://www.w3.org/2000/svg" viewBox="0 0 112.91 89.56"><defs><style>.cls-1{}</style></defs><title>game-controller</title><g id="Layer_2" data-name="Layer 2"><g id="Layer_1-2" data-name="Layer 1"><path class="cls-1" d="M97.46,89.56h-.27C79.89,89.9,70.67,71.7,67.5,63.86a1.86,1.86,0,0,0-1.74-1.17H47.14a1.87,1.87,0,0,0-1.74,1.17c-3.14,7.77-12.23,25.69-29.22,25.7h-.46A14,14,0,0,1,5.59,85.34C1.16,80.85-.65,73.43.21,63.28A121.52,121.52,0,0,1,3.78,42.64C7.71,28,13.67,19.28,21.47,16.75c1.26-.52,8.33-3.05,21.72-.18A78.6,78.6,0,0,0,53.93,18V2.5a2.5,2.5,0,0,1,5,0V18a78,78,0,0,0,10.79-1.45c13.39-2.87,20.45-.34,21.71.18,7.81,2.53,13.76,11.24,17.7,25.89a122.3,122.3,0,0,1,3.57,20.67c.86,10.12-1,17.54-5.39,22A14.16,14.16,0,0,1,97.46,89.56Zm-.24-5h.18a9.05,9.05,0,0,0,6.43-2.81c3.26-3.36,4.6-9.61,3.88-18-.74-10.43-5.4-38.28-17.9-42.22a2.19,2.19,0,0,1-.33-.12s-6-2.61-18.71.1a81.79,81.79,0,0,1-14.25,1.68h-.13a81.7,81.7,0,0,1-14.25-1.68c-12.67-2.71-18.68-.12-18.74-.09a1.82,1.82,0,0,1-.3.11C10.58,25.42,5.93,53.27,5.19,63.67c-.72,8.47.63,14.72,3.89,18.08a8.91,8.91,0,0,0,6.45,2.8h.22c4.72.09,16.66-1.88,25-22.56a6.82,6.82,0,0,1,6.37-4.3H65.76A6.84,6.84,0,0,1,72.14,62c8.35,20.69,20.28,22.64,25,22.57Z"/><path class="cls-1" d="M31.91,53.55a2.5,2.5,0,0,1-2.5-2.5V35a2.5,2.5,0,1,1,5,0V51.05A2.49,2.49,0,0,1,31.91,53.55Z"/><path class="cls-1" d="M40,45.51H23.88a2.5,2.5,0,0,1,0-5H40a2.5,2.5,0,0,1,0,5Z"/><circle class="cls-1" cx="80.36" cy="35.53" r="2.69"/><path class="cls-1" d="M80.36,38.72a3.19,3.19,0,1,1,3.19-3.19A3.19,3.19,0,0,1,80.36,38.72Zm0-5.38a2.19,2.19,0,1,0,2.19,2.19A2.19,2.19,0,0,0,80.36,33.34Z"/><circle class="cls-1" cx="80.36" cy="51.05" r="2.69"/><path class="cls-1" d="M80.36,54.24a3.19,3.19,0,1,1,3.19-3.19A3.19,3.19,0,0,1,80.36,54.24Zm0-5.38a2.19,2.19,0,1,0,2.19,2.19A2.19,2.19,0,0,0,80.36,48.86Z"/><circle class="cls-1" cx="88.12" cy="43.29" r="2.69"/><path class="cls-1" d="M88.12,46.48a3.19,3.19,0,1,1,3.19-3.19A3.19,3.19,0,0,1,88.12,46.48Zm0-5.38a2.19,2.19,0,1,0,2.19,2.19A2.19,2.19,0,0,0,88.12,41.1Z"/><circle class="cls-1" cx="72.6" cy="43.29" r="2.69"/><path class="cls-1" d="M72.6,46.48a3.19,3.19,0,1,1,3.19-3.19A3.19,3.19,0,0,1,72.6,46.48Zm0-5.38a2.19,2.19,0,1,0,2.19,2.19A2.19,2.19,0,0,0,72.6,41.1Z"/></g></g></svg>