<svg xmlns="http://www.w3.org/2000/svg" viewBox="0 0 103.11 103.11"><defs><style>.cls-1{}</style></defs><title>gavel</title><g id="Layer_2" data-name="Layer 2"><g id="Layer_1-2" data-name="Layer 1"><path class="cls-1" d="M70.29,62.05,41.05,32.81,63.41,10.46,92.65,39.7ZM48.12,32.81,70.29,55,85.58,39.7,63.41,17.53Z"/><path class="cls-1" d="M9.29,103.11a8.8,8.8,0,0,1-6.24-2.58l-.47-.47a8.84,8.84,0,0,1,0-12.48L28.14,62a8.84,8.84,0,0,1,12.48,0l.47.47a8.82,8.82,0,0,1,0,12.47L15.52,100.53A8.76,8.76,0,0,1,9.29,103.11ZM34.38,64.44a3.79,3.79,0,0,0-2.7,1.11L6.11,91.12a3.84,3.84,0,0,0,0,5.4l.47.47A3.83,3.83,0,0,0,12,97L37.55,71.43a3.83,3.83,0,0,0,0-5.41l-.47-.46A3.76,3.76,0,0,0,34.38,64.44Z"/><path class="cls-1" d="M75,72.52a8.77,8.77,0,0,1-6.23-2.58l-.47-.47a8.85,8.85,0,0,1,0-12.48l19.3-19.3a8.84,8.84,0,0,1,12.48,0l.47.47a8.84,8.84,0,0,1,0,12.48l-19.3,19.3A8.79,8.79,0,0,1,75,72.52ZM93.82,40.11a3.78,3.78,0,0,0-2.7,1.12L71.82,60.52a3.83,3.83,0,0,0,0,5.41l.47.47a3.93,3.93,0,0,0,5.41,0L97,47.1a3.82,3.82,0,0,0,0-5.4l-.47-.47A3.78,3.78,0,0,0,93.82,40.11Z"/><path class="cls-1" d="M39.88,37.4a8.8,8.8,0,0,1-6.24-2.58l-.47-.47a8.82,8.82,0,0,1,0-12.47l19.3-19.3a8.82,8.82,0,0,1,12.47,0l.47.47a8.82,8.82,0,0,1,0,12.47L46.12,34.82A8.8,8.8,0,0,1,39.88,37.4ZM58.7,5A3.84,3.84,0,0,0,56,6.11L36.71,25.41a3.82,3.82,0,0,0,0,5.4l.47.47a3.82,3.82,0,0,0,5.4,0L61.88,12a3.83,3.83,0,0,0,0-5.41l-.47-.47A3.85,3.85,0,0,0,58.7,5Z"/><path class="cls-1" d="M39.08,66.52a2.47,2.47,0,0,1-1.76-.73,2.5,2.5,0,0,1,0-3.54L55.67,43.9a2.5,2.5,0,0,1,3.54,3.53L40.85,65.79A2.49,2.49,0,0,1,39.08,66.52Z"/></g></g></svg>