<svg xmlns="http://www.w3.org/2000/svg" viewBox="0 0 118.3 78.33"><defs><style>.cls-1{}</style></defs><title>hand-shake</title><g id="Layer_2" data-name="Layer 2"><g id="Layer_1-2" data-name="Layer 1"><path class="cls-1" d="M116.47,15.1c-3.11-4.09-6.18-8-9.15-11.69S99.82-1,95.65,1.53c-1.05.64-2.09,1.29-3.13,2-1.69,1.05-3.37,2.1-5.07,3.13A7.71,7.71,0,0,1,79.79,7c-1.32-.62-2.63-1.25-3.94-1.89S73,3.73,71.5,3.05a11.22,11.22,0,0,0-10.81.32,3.52,3.52,0,0,1-4.11,0A14.57,14.57,0,0,0,43.4,2.89l-1.72.74c-1.07.46-2.14.92-3.22,1.35a11.2,11.2,0,0,1-8.69,0l-2.44-1c-1.08-.46-2.15-.93-3.24-1.36A10.4,10.4,0,0,0,13,5C9.31,9.11,5.72,13.15,2.06,17.27a7.58,7.58,0,0,0-2,4.26c-.46,3.89,1.87,6.3,3.67,7.77,2.16,1.77,4.33,3.63,6.43,5.44l2.38,2-.29.33-1.43,1.48c-1,1.05-2.09,2.13-3.06,3.27a7.51,7.51,0,0,0,.43,10.42A26.65,26.65,0,0,0,11,54.55c.35.26.7.51,1,.78A7.8,7.8,0,0,0,14,64a8.4,8.4,0,0,0,8.76,2.55,9.89,9.89,0,0,0,5,5.46,7.4,7.4,0,0,0,7-.07l.69.89a19.62,19.62,0,0,0,2.07,2.43,8,8,0,0,0,5.61,2.41h.16a8.4,8.4,0,0,0,5.88-2.79C50.05,74,51,73.18,52,72.3l1-.91,1.13,1c1.28,1.18,2.65,2.44,4,3.7a8,8,0,0,0,5.44,2.2,7.71,7.71,0,0,0,5.56-2.4,25.42,25.42,0,0,0,2.09-2.59l.58-.79a8.44,8.44,0,0,0,1.07.94c.27.17.53.36.8.55a10.34,10.34,0,0,0,2.94,1.67,7.45,7.45,0,0,0,5.89-.61,10,10,0,0,0,4.64-5.81c.14-.49.14-.49.47-.45a9.06,9.06,0,0,0,9.62-6.93,12.93,12.93,0,0,0,.15-2.23c0-.22,0-.44,0-.66a9.43,9.43,0,0,0,6.82-6.74c1.15-4.1-1.21-6.86-3.59-8.82l.17-.19c.4-.46.77-.87,1.15-1.29l4.29-4.74c3.24-3.57,6.59-7.27,9.85-11A8.76,8.76,0,0,0,116.47,15.1ZM66.16,67.36a3.82,3.82,0,0,1,1.07,2.28c0,1.41-.86,2.57-2.64,3.45-1.09.54-2.17.27-3.3-.83-1.64-1.57-3.36-3.11-5.06-4.64-.31-.28-.37-.42-.2-.89a7.45,7.45,0,0,0-1.83-8.25c-2-2.11-4-3.11-6.23-3.11h-.11c-.84-3.08-2.41-6.61-6.73-8a7.9,7.9,0,0,0-1.82-7.29c-1.5-1.65-3.62-3.5-6.83-3.48h0a9.34,9.34,0,0,0-7-7.65c-4.21-1.14-6.89,1.31-9.41,4.27L8.77,27c-.9-.77-1.81-1.54-2.69-2.33a3,3,0,0,1-.22-4.2q5.37-6,10.77-12.06a5.37,5.37,0,0,1,5.75-1.22c1.05.43,2.1.88,3.15,1.34l2,.85a16.64,16.64,0,0,0,13.34,0l1-.41A48.51,48.51,0,0,1,48,6.72a8.13,8.13,0,0,1,6.22,1h0L52.1,9.19c-1.11.78-2.22,1.55-3.31,2.34a7.64,7.64,0,0,0-2,10.52c2.1,3.31,4.81,4.89,8.09,4.65a12.38,12.38,0,0,0,4-1.25l.45-.19c.72-.31,1.42-.7,2.09-1.06a17.88,17.88,0,0,1,2.77-1.32,5.18,5.18,0,0,1,4.57.88A179.25,179.25,0,0,1,94.52,44.58c.69.68,1.4,1.33,2.11,2s1.18,1.07,1.76,1.63c1.54,1.49,1.5,2.93-.14,4.66s-3.13,1.82-4.68.39L79,39.73a1.64,1.64,0,0,0-2.32.09L75.52,41a1.65,1.65,0,0,0,.09,2.33L91,57.63A3.74,3.74,0,0,1,92.29,61a3.85,3.85,0,0,1-2.53,2.77A2.87,2.87,0,0,1,86.49,63L71.89,49.56a1.65,1.65,0,0,0-2.32.09l-1.11,1.19a1.65,1.65,0,0,0,.08,2.33L81.42,65.1a3,3,0,0,1,.28,4.12A4.14,4.14,0,0,1,79.24,71a3.28,3.28,0,0,1-2.92-1.09L63.7,58.32a1.65,1.65,0,0,0-2.31.08l-1.13,1.19a1.65,1.65,0,0,0,.08,2.33Zm-26.75,1a4.5,4.5,0,0,1,.7-1.29c2-2.28,3.87-4.21,5.62-5.92.9-.88,2.37-1.77,4.78.62a2.78,2.78,0,0,1,.23,4.2c-1.71,1.89-3.58,3.85-5.56,5.83a2.74,2.74,0,0,1-4,0,4.89,4.89,0,0,1-2-2.89C39.25,68.8,39.33,68.6,39.41,68.41ZM11.82,44.71l1.36-1.41q4.2-4.39,8.44-8.75a2.91,2.91,0,0,1,2.08-.91,2.86,2.86,0,0,1,1.58.5c1.61,1.07,2.51,2.91,2,4.09a5.82,5.82,0,0,1-1.2,1.64c-1.79,1.89-3.6,3.77-5.41,5.65l-3.75,3.9a2.71,2.71,0,0,1-2.23,1.13h0c-1.5-.08-2.62-.92-3.53-2.62A2.65,2.65,0,0,1,11.82,44.71Zm5.6,11.38.49-.51c3.93-4.07,8-8.27,12-12.44.95-1,1.68-1.56,2.73-1.56h.22c1.56.11,3.47,2,3.74,3.75l-.3.64a5.59,5.59,0,0,1-.81,1.39c-3.77,4-7.84,8.22-13.2,13.76a2.67,2.67,0,0,1-3.84.12,6.84,6.84,0,0,1-1.69-2A2.65,2.65,0,0,1,17.42,56.09Zm10.71,6.18c1.52-1.62,3.06-3.23,4.6-4.84q2-2.13,4.07-4.27A3.05,3.05,0,0,1,39,52.06a3.08,3.08,0,0,1,1.08.21A5.09,5.09,0,0,1,43,55.81c-.09.19-.17.39-.25.59a4.17,4.17,0,0,1-.68,1.26c-2.86,3.09-5.85,6.23-8.9,9.34a2.77,2.77,0,0,1-4.05,0c-.29-.26-.67-.61-1-1A2.67,2.67,0,0,1,28.13,62.27ZM94.47,37.69c-2.15-2-4.18-3.92-6.4-5.69-3.29-2.62-6.72-5.16-10-7.62-1.74-1.28-3.48-2.57-5.2-3.87a12.08,12.08,0,0,0-6.11-2.67,13.2,13.2,0,0,0-1.39-.07,11.11,11.11,0,0,0-5.8,1.61l-1.36.82c-.54.33-1.07.66-1.62,1a3.6,3.6,0,0,1-3.26.38,5,5,0,0,1-2.73-3.32,2.54,2.54,0,0,1,1.23-2.75l2.33-1.66c2.74-1.95,5.57-4,8.42-5.85a6.72,6.72,0,0,1,6.79-.44c1.43.64,2.86,1.34,4.24,2s2.75,1.35,4.14,2a12.61,12.61,0,0,0,12.37-.71c1.63-1,3.25-2,4.86-3L98.37,5.7c2-1.23,3.66-1,5.09.86,2.72,3.43,5.63,7.16,8.92,11.4a4,4,0,0,1-.38,5.49l-6.37,7L97,40C96.14,39.26,95.3,38.47,94.47,37.69Z"/></g></g></svg>