<svg xmlns="http://www.w3.org/2000/svg" viewBox="0 0 76.87 104.9"><defs><style>.cls-1{}</style></defs><title>hand</title><g id="Layer_2" data-name="Layer 2"><g id="Layer_1-2" data-name="Layer 1"><path class="cls-1" d="M47.49,87.18a2.5,2.5,0,0,1-2.5-2.5A23.88,23.88,0,0,0,21.13,60.82a2.5,2.5,0,0,1,0-5A28.89,28.89,0,0,1,50,84.68,2.5,2.5,0,0,1,47.49,87.18Z"/><path class="cls-1" d="M35,53.61a2.5,2.5,0,0,1-2.5-2.5V14.75a2.5,2.5,0,0,1,5,0V51.11A2.5,2.5,0,0,1,35,53.61Z"/><path class="cls-1" d="M48.1,53.61a2.5,2.5,0,0,1-2.5-2.5V14.75a2.5,2.5,0,0,1,5,0V51.11A2.5,2.5,0,0,1,48.1,53.61Z"/><path class="cls-1" d="M61.23,53.61a2.5,2.5,0,0,1-2.5-2.5V20.43a2.5,2.5,0,0,1,5,0V51.11A2.49,2.49,0,0,1,61.23,53.61Z"/><path class="cls-1" d="M57.13,104.9H35.7A19.82,19.82,0,0,1,17.24,92.15L.59,48.14A9.06,9.06,0,0,1,6,36.4a9.23,9.23,0,0,1,11.61,5.53l1.71,4.52V15a9.22,9.22,0,0,1,8.89-9.28,8.94,8.94,0,0,1,4.53,1.1A9.07,9.07,0,0,1,41.7,0a9.16,9.16,0,0,1,8.57,6.82,8.94,8.94,0,0,1,4.57-1.13A9.14,9.14,0,0,1,63.4,12.5,9.11,9.11,0,0,1,68,11.37a9.22,9.22,0,0,1,8.9,9.28V85.17A19.76,19.76,0,0,1,57.13,104.9ZM9,40.88a3.8,3.8,0,0,0-1.28.23,4.05,4.05,0,0,0-2.44,5.26l16.64,44A14.83,14.83,0,0,0,35.7,99.9H57.13A14.75,14.75,0,0,0,71.87,85.17V20.65a4.2,4.2,0,0,0-4-4.28A3.92,3.92,0,0,0,65,17.53a4.05,4.05,0,0,0-1.22,2.9h-5V15a4.2,4.2,0,0,0-4-4.28,4.06,4.06,0,0,0-4.15,4.06h-5V9.28a4.2,4.2,0,0,0-4-4.28,3.9,3.9,0,0,0-2.92,1.16,4.05,4.05,0,0,0-1.22,2.91v5.68h-5a4,4,0,0,0-1.22-2.9,4,4,0,0,0-2.92-1.16,4.2,4.2,0,0,0-4,4.28V57.74a2.94,2.94,0,0,1-5.69,1L13,43.7A4.3,4.3,0,0,0,9,40.88Z"/></g></g></svg>