<svg xmlns="http://www.w3.org/2000/svg" viewBox="0 0 65.43 166.82"><defs><style>.cls-1{}</style></defs><title>kid</title><g id="Layer_2" data-name="Layer 2"><g id="Layer_1-2" data-name="Layer 1"><path class="cls-1" d="M33.36,42.6a21.33,21.33,0,1,1,21.3-21.3A21.32,21.32,0,0,1,33.36,42.6Zm0-37.6a16.3,16.3,0,1,0,16.3,16.3,16,16,0,0,0-.47-3.91A16.26,16.26,0,0,0,33.36,5Z"/><path class="cls-1" d="M51.57,19.3H2.5a2.5,2.5,0,0,1,0-5H51.57a2.5,2.5,0,0,1,0,5Z"/><path class="cls-1" d="M51.69,94H15a2.49,2.49,0,0,1-2.47-2.88l6.71-44.31a2.5,2.5,0,0,1,4.36-1.27c.08.09,3.93,4.36,9.46,4.65,3.72.2,7.45-1.44,11.13-4.84a2.49,2.49,0,0,1,2.55-.52,2.52,2.52,0,0,1,1.63,2l5.76,44.31A2.51,2.51,0,0,1,51.69,94ZM18,89H48.84L44,51.84a18.22,18.22,0,0,1-11.24,3.31,18.65,18.65,0,0,1-9.22-3.22Z"/><path class="cls-1" d="M51.69,166.82H15a2.5,2.5,0,0,1-2.5-2.5V91.47a2.5,2.5,0,0,1,5,0v70.35H49.19V91.47a2.5,2.5,0,0,1,5,0v72.85A2.5,2.5,0,0,1,51.69,166.82Z"/><path class="cls-1" d="M33.36,166.82a2.5,2.5,0,0,1-2.5-2.5V117.65a2.5,2.5,0,0,1,5,0v46.67A2.5,2.5,0,0,1,33.36,166.82Z"/><path class="cls-1" d="M11.24,92.29a2.5,2.5,0,0,1-2-.93C-5.1,73.51,3.11,56.78,9.47,50.42A2.5,2.5,0,0,1,13,54c-.64.64-14.95,15.53.17,34.27a2.5,2.5,0,0,1-1.94,4.07Z"/><path class="cls-1" d="M55.49,92.29a2.49,2.49,0,0,1-1.94-4.07c15.12-18.76.79-33.64.17-34.27a2.5,2.5,0,0,1,3.54-3.53c6.35,6.36,14.57,23.09.18,40.94A2.52,2.52,0,0,1,55.49,92.29Z"/></g></g></svg>