<svg xmlns="http://www.w3.org/2000/svg" viewBox="0 0 113.73 93.2"><defs><style>.cls-1{}</style></defs><title>newspaper</title><g id="Layer_2" data-name="Layer 2"><g id="Layer_1-2" data-name="Layer 1"><path class="cls-1" d="M9.47,93.2H8a8,8,0,0,1-8-8V17.81a5.42,5.42,0,0,1,5.42-5.42h7.05V6a6,6,0,0,1,6-6h89.22a6,6,0,0,1,6,6V87a6,6,0,0,1-6,6H11.2A8.26,8.26,0,0,1,9.47,93.2ZM5.42,17.39a.42.42,0,0,0-.42.42V85.2a3,3,0,0,0,3,3H9.47a3,3,0,0,0,3-3V17.39ZM17,88h90.75a1,1,0,0,0,1-1V6a1,1,0,0,0-1-1H18.49a1,1,0,0,0-1,1V85.2A7.92,7.92,0,0,1,17,88Z"/><path class="cls-1" d="M100.63,42.27H25.73V15.73h74.9Zm-69.9-5h64.9V20.73H30.73Z"/><path class="cls-1" d="M98.13,59.09H28.23a2.5,2.5,0,0,1,0-5h69.9a2.5,2.5,0,0,1,0,5Z"/><path class="cls-1" d="M98.13,75.7H28.23a2.5,2.5,0,0,1,0-5h69.9a2.5,2.5,0,0,1,0,5Z"/></g></g></svg>