<svg xmlns="http://www.w3.org/2000/svg" viewBox="0 0 95.56 111.67"><defs><style>.cls-1{}</style></defs><title>pdf</title><g id="Layer_2" data-name="Layer 2"><g id="Layer_1-2" data-name="Layer 1"><path class="cls-1" d="M89,111.67H6.54A6.56,6.56,0,0,1,0,105.13V35.06L32.67,0H89a6.54,6.54,0,0,1,6.54,6.54v98.59A6.55,6.55,0,0,1,89,111.67ZM5,37v68.1a1.54,1.54,0,0,0,1.54,1.54H89a1.54,1.54,0,0,0,1.54-1.54V6.54A1.54,1.54,0,0,0,89,5H34.84Z"/><path class="cls-1" d="M27.88,43.55H12a2.5,2.5,0,0,1,0-5H27.62c8.19-.92,8.05-8.55,8-8.87v-17a2.5,2.5,0,0,1,5,0v17c.13,4.31-2.34,12.88-12.65,13.94Z"/><path class="cls-1" d="M51.58,54.54a56.83,56.83,0,0,1-1.13,7.08,1.57,1.57,0,0,0,.06,1.06,26.48,26.48,0,0,0,6.25,7.5,40.82,40.82,0,0,0,4.49,3.28,1.68,1.68,0,0,0,1,.13c2.55-.31,5.09-.84,7.64-.94a11.2,11.2,0,0,1,7.07,1.89,6.13,6.13,0,0,1,2.22,6.36,6,6,0,0,1-5.41,4.52,13.92,13.92,0,0,1-8.63-3c-1.5-1.09-2.86-2.36-4.3-3.53-.23-.18-.56-.41-.81-.37a49.27,49.27,0,0,0-8.61,1.42,26,26,0,0,0-6.06,2.55,1.71,1.71,0,0,0-.64.84c-1,2.26-1.74,4.58-2.83,6.77a12.26,12.26,0,0,1-4.33,4.88,6.1,6.1,0,0,1-7.76-.89,6,6,0,0,1-.6-7.62,14.68,14.68,0,0,1,6.59-5.16c1.64-.71,3.34-1.26,5-1.92a1.41,1.41,0,0,0,.78-.57,40.24,40.24,0,0,0,3.22-8.41A24.7,24.7,0,0,0,45.53,64a1.75,1.75,0,0,0-.44-.88c-1.5-1.93-3.16-3.76-4.49-5.81a11.55,11.55,0,0,1-2-7.13,6.09,6.09,0,0,1,9.22-4.63A7.76,7.76,0,0,1,51,49.64,12.23,12.23,0,0,1,51.58,54.54Zm-4.07,22a18.11,18.11,0,0,1,7.56-2A17.91,17.91,0,0,1,49.5,69,18.58,18.58,0,0,1,47.51,76.51ZM46.33,50.22a1.64,1.64,0,0,0-1.54-1.1c-1.44,0-1.68,1.32-1.53,2.34a10,10,0,0,0,3.12,5.8A11.58,11.58,0,0,0,46.33,50.22ZM39,84.93a9.9,9.9,0,0,0-5.68,3.32c-.66.79-1.14,2,.08,2.79a1.64,1.64,0,0,0,1.89-.13A11.54,11.54,0,0,0,39,84.93Zm33.55-4.15A1.62,1.62,0,0,0,74.31,80c.71-1.25-.3-2.11-1.26-2.49a9.93,9.93,0,0,0-6.58-.21A11.55,11.55,0,0,0,72.59,80.78Z"/><path class="cls-1" d="M34.14,96.44a6.6,6.6,0,0,1-4.75-2,6.51,6.51,0,0,1-.65-8.25,15.13,15.13,0,0,1,6.8-5.34c1-.44,2.07-.82,3.09-1.2.65-.23,1.3-.47,1.94-.72a1.16,1.16,0,0,0,.51-.32,40.34,40.34,0,0,0,3.19-8.32A24.23,24.23,0,0,0,45,64s0-.16-.33-.57c-.49-.64-1-1.26-1.51-1.88a47.37,47.37,0,0,1-3-4,12,12,0,0,1-2.07-7.45,6.38,6.38,0,0,1,3.56-5.24,6.45,6.45,0,0,1,6.42.23,8.28,8.28,0,0,1,3.37,4.33,12.8,12.8,0,0,1,.62,5.09A39.23,39.23,0,0,1,51.26,60c-.11.56-.22,1.11-.32,1.68s0,.68,0,.68a26,26,0,0,0,6.15,7.39l1.07.84A27.29,27.29,0,0,0,61.5,73a1.26,1.26,0,0,0,.64.07c.84-.11,1.68-.24,2.52-.36a46.55,46.55,0,0,1,5.16-.59,11.73,11.73,0,0,1,7.38,2A6.6,6.6,0,0,1,79.61,81a6.52,6.52,0,0,1-5.88,4.88,14.18,14.18,0,0,1-8.93-3.14c-1-.71-1.91-1.5-2.81-2.27l-1.51-1.27A1,1,0,0,0,60,79a47.51,47.51,0,0,0-8.54,1.41,25.52,25.52,0,0,0-5.94,2.49,1.41,1.41,0,0,0-.42.61c-.33.77-.64,1.55-.94,2.33-.58,1.48-1.18,3-1.9,4.46a12.69,12.69,0,0,1-4.51,5.08A6.77,6.77,0,0,1,34.14,96.44ZM44.71,45.18a5.75,5.75,0,0,0-2.59.63,5.38,5.38,0,0,0-3,4.42A11,11,0,0,0,41,57.06,44.52,44.52,0,0,0,44,60.94l1.52,1.89A2,2,0,0,1,46,64a24.38,24.38,0,0,1-.8,6.48A40,40,0,0,1,42,79a1.9,1.9,0,0,1-1,.78c-.65.26-1.3.49-2,.73-1,.37-2,.75-3,1.18a14.16,14.16,0,0,0-6.38,5,5.51,5.51,0,0,0,.55,7,5.6,5.6,0,0,0,7.13.82,11.58,11.58,0,0,0,4.15-4.69c.7-1.41,1.3-2.91,1.87-4.37.31-.79.62-1.58.94-2.36A2.36,2.36,0,0,1,45.07,82a25.77,25.77,0,0,1,6.18-2.59A48.56,48.56,0,0,1,60,78a1.58,1.58,0,0,1,1.15.48l1.54,1.29c.89.76,1.8,1.54,2.75,2.22a13.2,13.2,0,0,0,8.31,3,5.5,5.5,0,0,0,4.94-4.15,5.6,5.6,0,0,0-2-5.82,10.68,10.68,0,0,0-6.76-1.8,45.1,45.1,0,0,0-5,.57c-.85.13-1.7.26-2.55.37A2.25,2.25,0,0,1,61,73.9a28.38,28.38,0,0,1-3.49-2.49l-1.06-.83a27,27,0,0,1-6.38-7.64A2,2,0,0,1,50,61.53c.1-.57.21-1.13.32-1.69a38.44,38.44,0,0,0,.8-5.34h0a11.68,11.68,0,0,0-.57-4.69A7.09,7.09,0,0,0,47.56,46,5.3,5.3,0,0,0,44.71,45.18ZM34.3,91.78a2.17,2.17,0,0,1-1.12-.31,1.94,1.94,0,0,1-1-1.36A2.82,2.82,0,0,1,33,87.93a10.38,10.38,0,0,1,6-3.48l.84-.2-.25.83c-1.32,4.38-3.79,6.17-3.9,6.24A2.14,2.14,0,0,1,34.3,91.78Zm4-6.13a9.2,9.2,0,0,0-4.53,2.93A1.88,1.88,0,0,0,33.2,90a1,1,0,0,0,.51.67A1.13,1.13,0,0,0,35,90.51,10.73,10.73,0,0,0,38.27,85.65ZM72.9,81.31a2.43,2.43,0,0,1-.38,0,12,12,0,0,1-6.4-3.62l-.61-.61.83-.23a10.36,10.36,0,0,1,6.88.22A2.84,2.84,0,0,1,75,78.59a2,2,0,0,1-.2,1.66A2.13,2.13,0,0,1,72.9,81.31Zm-5.41-3.74a10.7,10.7,0,0,0,5.16,2.72h0a1.13,1.13,0,0,0,1.21-.54,1,1,0,0,0,.13-.82,1.91,1.91,0,0,0-1.15-1A9.16,9.16,0,0,0,67.49,77.57Zm-21.15.12.73-1.41A18,18,0,0,0,49,68.94l.1-1.54.82,1.3a17.28,17.28,0,0,0,5.42,5.41l1.31.83L55.1,75A17.42,17.42,0,0,0,47.74,77Zm3.53-7.3a18.78,18.78,0,0,1-1.32,5.08,18.66,18.66,0,0,1,5.09-1.32A18.16,18.16,0,0,1,49.87,70.39ZM46.64,58.22,46,57.61a10.42,10.42,0,0,1-3.25-6.07,2.82,2.82,0,0,1,.49-2.27,2,2,0,0,1,1.53-.65h0a2.14,2.14,0,0,1,2,1.41,12.11,12.11,0,0,1,.06,7.35Zm-1.84-8.6h0a1,1,0,0,0-.78.3,1.89,1.89,0,0,0-.26,1.47,9.12,9.12,0,0,0,2.34,4.85,10.72,10.72,0,0,0-.23-5.82v0A1.12,1.12,0,0,0,44.8,49.62Z"/></g></g></svg>