<svg xmlns="http://www.w3.org/2000/svg" viewBox="0 0 115.13 115.13"><defs><style>.cls-1{}</style></defs><title>plus</title><g id="Layer_2" data-name="Layer 2"><g id="Layer_1-2" data-name="Layer 1"><path class="cls-1" d="M66,87.94H49.17a5,5,0,0,1-5-5V71.59H32.82a5,5,0,0,1-5-5V49.79a5,5,0,0,1,5-5H44.17V33.44a5,5,0,0,1,5-5H66a5,5,0,0,1,5,5V44.79H82.31a5,5,0,0,1,5,5v16.8a5,5,0,0,1-5,5H71V82.93A5,5,0,0,1,66,87.94ZM32.82,49.79v16.8H49.17V82.93H66V66.59H82.31V49.79H66V33.44H49.17V49.79Z"/><path class="cls-1" d="M57.57,115.13a57.57,57.57,0,1,1,57.56-57.56A57.63,57.63,0,0,1,57.57,115.13ZM57.57,5a52.57,52.57,0,1,0,52.56,52.57A52.63,52.63,0,0,0,57.57,5Z"/></g></g></svg>