<svg xmlns="http://www.w3.org/2000/svg" viewBox="0 0 105.94 112.39"><defs><style>.cls-1{}</style></defs><title>profile</title><g id="Layer_2" data-name="Layer 2"><g id="Layer_1-2" data-name="Layer 1"><path class="cls-1" d="M52.89,56.67A28.34,28.34,0,1,1,81.22,28.33,28.37,28.37,0,0,1,52.89,56.67ZM52.89,5A23.34,23.34,0,1,0,76.22,28.33,23.36,23.36,0,0,0,52.89,5Z"/><path class="cls-1" d="M53.85,112.39H52.72c-30-.65-51-26.73-51.92-27.84l-.8-1,.36-1.23c.24-.83,6.07-20.17,26.34-23.4a32.61,32.61,0,0,1,16.22,2l.22.1A26,26,0,0,0,63,60.88a30.25,30.25,0,0,1,16.33-2c20.23,3.25,26.05,22.56,26.29,23.39l.37,1.3-.89,1C89.1,103.05,71.88,112.39,53.85,112.39ZM5.59,82.46c4.18,4.76,22.85,24.41,47.27,24.92,16.55.36,32.49-8,47.47-24.95-1.53-4-7.34-16.28-21.89-18.6l-.13,0a25.35,25.35,0,0,0-13.46,1.7,30.7,30.7,0,0,1-23.81,0,27.62,27.62,0,0,0-13.49-1.67C13,66.13,7.13,78.5,5.59,82.46Z"/></g></g></svg>