<svg xmlns="http://www.w3.org/2000/svg" viewBox="0 0 98.31 98.31"><defs><style>.cls-1{}</style></defs><title>sad-face</title><g id="Layer_2" data-name="Layer 2"><g id="Layer_1-2" data-name="Layer 1"><path class="cls-1" d="M33.14,67.84h32a2.12,2.12,0,0,0,.9-4l-3.44-1.62a31.66,31.66,0,0,0-27,0L32.23,63.8A2.12,2.12,0,0,0,33.14,67.84Z"/><path class="cls-1" d="M65.18,68.33h-32a2.62,2.62,0,0,1-1.12-5l3.44-1.61a32.06,32.06,0,0,1,27.4,0l3.43,1.61a2.62,2.62,0,0,1-1.11,5Zm-16-8.67a31.24,31.24,0,0,0-13.28,3l-3.43,1.62a1.61,1.61,0,0,0,.69,3.08h32a1.62,1.62,0,0,0,.69-3.08l-3.44-1.62A31.23,31.23,0,0,0,49.16,59.66Z"/><path class="cls-1" d="M49.16,98.31A49.16,49.16,0,1,1,98.31,49.16,49.21,49.21,0,0,1,49.16,98.31ZM49.16,5A44.16,44.16,0,1,0,93.31,49.16,44.21,44.21,0,0,0,49.16,5Z"/><circle class="cls-1" cx="67.11" cy="36.98" r="4.15"/><path class="cls-1" d="M67.11,41.62A4.65,4.65,0,1,1,71.76,37,4.64,4.64,0,0,1,67.11,41.62Zm0-8.29A3.65,3.65,0,1,0,70.76,37,3.65,3.65,0,0,0,67.11,33.33Z"/><circle class="cls-1" cx="30.13" cy="36.98" r="4.15"/><path class="cls-1" d="M30.13,41.62A4.65,4.65,0,1,1,34.77,37,4.65,4.65,0,0,1,30.13,41.62Zm0-8.29A3.65,3.65,0,1,0,33.77,37,3.66,3.66,0,0,0,30.13,33.33Z"/></g></g></svg>