<svg xmlns="http://www.w3.org/2000/svg" viewBox="0 0 118.43 118.42"><defs><style>.cls-1{}</style></defs><title>search</title><g id="Layer_2" data-name="Layer 2"><g id="Layer_1-2" data-name="Layer 1"><path class="cls-1" d="M39.05,78.1a39.05,39.05,0,1,1,39.05-39A39.1,39.1,0,0,1,39.05,78.1Zm0-73.1A34.05,34.05,0,1,0,73.1,39.05,34.09,34.09,0,0,0,39.05,5Z"/><path class="cls-1" d="M109.14,118.42a8.8,8.8,0,0,1-6.24-2.58L77.34,90.28a8.82,8.82,0,0,1,0-12.47l.47-.48a8.81,8.81,0,0,1,12.47,0l25.56,25.56a8.8,8.8,0,0,1,0,12.47l-.47.47A8.77,8.77,0,0,1,109.14,118.42ZM84,79.75a3.8,3.8,0,0,0-2.7,1.12l-.47.47a3.83,3.83,0,0,0,0,5.41l25.56,25.56a3.83,3.83,0,0,0,5.41,0l.47-.47a3.81,3.81,0,0,0,0-5.4L86.75,80.87A3.84,3.84,0,0,0,84,79.75Z"/><path class="cls-1" d="M79.34,81.84a2.53,2.53,0,0,1-1.77-.73L64.71,68.25a2.5,2.5,0,1,1,3.54-3.54L81.11,77.57a2.5,2.5,0,0,1-1.77,4.27Z"/></g></g></svg>