<svg xmlns="http://www.w3.org/2000/svg" viewBox="0 0 117.48 95.14"><defs><style>.cls-1{}</style></defs><title>speech-bubbles</title><g id="Layer_2" data-name="Layer 2"><g id="Layer_1-2" data-name="Layer 1"><path class="cls-1" d="M28.92,79.05a5.15,5.15,0,0,1-5.12-5.11V60.27H6.69A6.7,6.7,0,0,1,0,53.58V6.69A6.7,6.7,0,0,1,6.69,0H88.51A6.7,6.7,0,0,1,95.2,6.69V53.58a6.7,6.7,0,0,1-6.69,6.69H48.69l-16,17.15A5.09,5.09,0,0,1,28.92,79.05ZM6.69,5A1.69,1.69,0,0,0,5,6.69V53.58a1.69,1.69,0,0,0,1.69,1.69H28.8V73.94s0,.07.07.09.08,0,.11,0L46.52,55.27h42a1.69,1.69,0,0,0,1.69-1.69V6.69A1.69,1.69,0,0,0,88.51,5Z"/><path class="cls-1" d="M92.66,95.14a4.68,4.68,0,0,1-3.42-1.49L75.79,79.28H48.6a6,6,0,0,1-6-6,2.5,2.5,0,0,1,5,0,1,1,0,0,0,1,1H78l14.41,15.4V74.28h19.07a1,1,0,0,0,1-1V33.62a1,1,0,0,0-1-1h-9.87a2.5,2.5,0,0,1,0-5h9.87a6,6,0,0,1,6,6V73.24a6,6,0,0,1-6,6H97.37V90.43a4.69,4.69,0,0,1-3,4.38A4.84,4.84,0,0,1,92.66,95.14Z"/><path class="cls-1" d="M73.88,24.51H19.12a2.5,2.5,0,0,1,0-5H73.88a2.5,2.5,0,0,1,0,5Z"/><path class="cls-1" d="M64.64,34.75H19.12a2.5,2.5,0,0,1,0-5H64.64a2.5,2.5,0,0,1,0,5Z"/></g></g></svg>