<svg xmlns="http://www.w3.org/2000/svg" viewBox="0 0 104.04 79.44"><defs><style>.cls-1{}</style></defs><title>video</title><g id="Layer_2" data-name="Layer 2"><g id="Layer_1-2" data-name="Layer 1"><path class="cls-1" d="M97.5,79.44h-91A6.56,6.56,0,0,1,0,72.9V6.54A6.55,6.55,0,0,1,6.54,0h91A6.55,6.55,0,0,1,104,6.54V72.9A6.56,6.56,0,0,1,97.5,79.44ZM6.54,5A1.54,1.54,0,0,0,5,6.54V72.9a1.54,1.54,0,0,0,1.54,1.54h91A1.54,1.54,0,0,0,99,72.9V6.54A1.54,1.54,0,0,0,97.5,5Z"/><path class="cls-1" d="M41.82,57.84a4.42,4.42,0,0,1-4.41-4.42V26a4.41,4.41,0,0,1,6.43-3.93l26.59,13.7a4.42,4.42,0,0,1,0,7.85L43.84,57.35A4.39,4.39,0,0,1,41.82,57.84ZM42.41,27V52.46L67.13,39.72Z"/></g></g></svg>